# xmcd
#
# Track frame offsets:
#	150
#	15935
#	33125
#	51507
#	69597
#	87847
#	102332
#	121940
#	136792
#	151887
#
# Disc length: 2232 seconds
#
# Revision: 1
# Processed by: cddbd v1.5.1PL0 Copyright (c) Steve Scherf et al.
# Submitted via: audiograbber 1.83.01
#
DISCID=7308b60a
DTITLE=Slizzy Bob - Love Ballads - Slizzy Bob - Love Ballads
DYEAR=1996
DGENRE=Ballads
TTITLE0=Three Times A Lady
TTITLE1=When The Moon Is On The Rise
TTITLE2=Feel
TTITLE3=Fantasy
TTITLE4=Lady In Red
TTITLE5=Sweetest Memories
TTITLE6=(Everything I Do) I Do It For You
TTITLE7=What`s She`s Doing Now
TTITLE8=Marry Me (Venice Version)
TTITLE9=Moments Of Love
EXTD=
EXTT0=
EXTT1=
EXTT2=
EXTT3=
EXTT4=
EXTT5=
EXTT6=
EXTT7=
EXTT8=
EXTT9=
PLAYORDER=
